<?xml version="1.0" standalone="no"?>
<!DOCTYPE svg PUBLIC "-//W3C//DTD SVG 20010904//EN"
 "http://www.w3.org/TR/2001/REC-SVG-20010904/DTD/svg10.dtd">
<svg version="1.0" xmlns="http://www.w3.org/2000/svg"
 width="225.000000pt" height="225.000000pt" viewBox="0 0 225.000000 225.000000"
 preserveAspectRatio="xMidYMid meet">
<metadata>
Created by potrace 1.16, written by Peter Selinger 2001-2019
</metadata>
<g transform="translate(0.000000,225.000000) scale(0.100000,-0.100000)"
fill="#000000" stroke="none">
<path d="M0 1125 l0 -1125 1125 0 1125 0 0 1125 0 1125 -1125 0 -1125 0 0
-1125z m530 715 c38 -21 45 -50 50 -228 6 -195 8 -202 81 -202 60 0 69 22 69
170 0 136 13 183 61 227 42 38 73 43 276 43 219 0 256 -7 307 -56 l34 -33 23
26 c44 46 91 63 176 63 138 0 203 -54 203 -168 0 -29 -7 -66 -15 -82 -14 -28
-14 -30 14 -49 30 -21 61 -85 61 -124 0 -80 -62 -166 -135 -186 -22 -6 -104
-11 -182 -11 -177 0 -173 -3 -173 149 0 102 0 104 -19 87 -30 -27 -90 -45
-153 -46 l-58 0 0 -55 c0 -61 -19 -108 -49 -125 -35 -18 -88 -12 -118 14 l-28
24 -3 201 c-3 167 -6 201 -18 201 -11 0 -14 -25 -14 -140 0 -123 -3 -146 -22
-186 -41 -88 -132 -130 -267 -122 -141 8 -217 70 -241 197 -14 73 -13 336 1
364 26 51 91 73 139 47z m1330 -710 c0 -7 -252 -10 -735 -10 -483 0 -735 3
-735 10 0 7 252 10 735 10 483 0 735 -3 735 -10z m-1226 -152 l36 -43 0 43 c0
35 3 42 20 42 18 0 20 -7 20 -75 0 -67 -2 -75 -19 -75 -11 0 -35 19 -55 43
l-36 42 0 -42 c0 -36 -3 -43 -20 -43 -18 0 -20 7 -20 75 0 67 2 75 19 75 11 0
35 -19 55 -42z m883 27 c29 -20 37 -59 19 -94 -18 -34 -34 -41 -87 -41 l-39 0
0 75 0 75 43 0 c23 0 52 -7 64 -15z m310 -7 c54 -50 12 -128 -68 -128 l-39 0
0 75 0 75 42 0 c29 0 49 -7 65 -22z m-1189 -205 c34 -29 37 -66 9 -98 -33 -38
-81 -39 -114 -1 -30 35 -29 61 2 91 29 30 74 33 103 8z m350 -203 c3 -28 1
-32 -15 -25 -47 21 -93 -3 -93 -49 0 -45 67 -75 99 -43 10 10 12 4 9 -28 l-3
-40 -48 -3 c-43 -3 -51 0 -82 31 -30 30 -35 42 -35 80 0 77 70 135 140 117 19
-5 26 -14 28 -40z m-460 24 c23 -16 31 -67 11 -79 -6 -5 -3 -13 10 -22 27 -18
27 -64 0 -89 -14 -12 -40 -19 -85 -22 l-64 -4 0 116 0 116 53 0 c31 0 61 -6
75 -16z m241 -92 c22 -59 41 -110 41 -115 0 -4 -13 -7 -29 -7 -21 0 -32 6 -36
20 -5 16 -15 20 -50 20 -34 0 -44 -4 -48 -20 -4 -15 -14 -20 -37 -20 -21 0
-31 4 -28 13 3 6 22 58 43 115 38 100 39 102 70 102 32 0 33 -2 74 -108z m426
6 c21 -57 40 -109 43 -115 3 -9 -7 -13 -28 -13 -23 0 -33 5 -37 20 -4 16 -14
20 -48 20 -35 0 -45 -4 -50 -20 -4 -14 -15 -20 -36 -20 -16 0 -29 3 -29 7 0 5
19 56 41 115 41 106 42 108 74 108 31 0 32 -2 70 -102z m125 17 l0 -85 35 0
c32 0 35 -2 35 -30 l0 -31 -62 3 -63 3 -3 113 -3 112 31 0 30 0 0 -85z m278
-23 c23 -60 42 -112 42 -115 0 -4 -14 -7 -31 -7 -22 0 -32 5 -36 20 -4 16 -14
20 -48 20 -34 0 -44 -4 -48 -20 -4 -15 -14 -20 -36 -20 -17 0 -31 2 -31 5 0 2
19 54 41 115 41 109 42 110 74 110 31 0 33 -2 73 -108z m206 87 c33 -26 35
-70 5 -98 l-22 -20 32 -43 32 -43 -33 -3 c-25 -3 -37 2 -48 18 -47 65 -45 65
-45 23 0 -36 -2 -38 -30 -38 l-30 0 -3 99 c-1 55 0 106 2 113 9 22 108 17 140
-8z"/>
</g>
</svg>
